name rise42.5664peak47.7979fall81.9185.mot
datacolumns 19
datarows 29
range 2.02665700000000 2.07332800000000
endheader
time	ground_force1_vx	ground_force1_vy	ground_force1_vz	ground_force1_px	ground_force1_py	ground_force1_pz	ground_force2_vx	ground_force2_vy	ground_force2_vz	ground_force2_px	ground_force2_py	ground_force2_pz	ground_torque1_x	ground_torque1_y	ground_torque1_z	ground_torque2_x	ground_torque2_y	ground_torque2_z	
2.02665700000000	-32.91424300000000	822.60581200000001	55.51524700000000	0.06738100000000	0.00000000000000	0.10604900000000	0.00000000000000	0.00000000000000	0.00000000000000	0.00000000000000	0.00000000000000	0.00000000000000	0.00000000000000	13.71609700000000	0.00000000000000	0.00000000000000	0.00000000000000	0.00000000000000	
2.02832600000000	-33.63977000000000	821.84359099999995	55.54761700000000	0.06644000000000	0.00000000000000	0.10595600000000	0.00000000000000	0.00000000000000	0.00000000000000	0.00000000000000	0.00000000000000	0.00000000000000	0.00000000000000	13.71156600000000	0.00000000000000	0.00000000000000	0.00000000000000	0.00000000000000	
2.02999400000000	-34.38316600000000	820.95309699999996	55.55724000000000	0.06549400000000	0.00000000000000	0.10586000000000	0.00000000000000	0.00000000000000	0.00000000000000	0.00000000000000	0.00000000000000	0.00000000000000	0.00000000000000	13.70904200000000	0.00000000000000	0.00000000000000	0.00000000000000	0.00000000000000	
2.03166300000000	-35.14418200000000	819.93071699999996	55.54318400000000	0.06454400000000	0.00000000000000	0.10576100000000	-1.40210600000000	3.65429800000000	0.97550100000000	0.00000000000000	0.00000000000000	0.00000000000000	0.00000000000000	13.70857800000000	0.00000000000000	0.00000000000000	0.22347000000000	0.00000000000000	
2.03332800000000	-35.92248500000000	818.77284399999996	55.50455500000000	0.06358900000000	0.00000000000000	0.10566000000000	-2.29035700000000	7.00213800000000	1.69379300000000	0.00000000000000	0.00000000000000	0.00000000000000	0.00000000000000	13.71021600000000	0.00000000000000	0.00000000000000	0.39781400000000	0.00000000000000	
2.03499000000000	-36.71765100000000	817.47588199999996	55.44049700000000	0.06263100000000	0.00000000000000	0.10555600000000	-3.30478600000000	11.04136700000000	2.53431800000000	0.00000000000000	0.00000000000000	0.00000000000000	0.00000000000000	13.71398700000000	0.00000000000000	0.00000000000000	0.60356600000000	0.00000000000000	
2.03665500000000	-37.52917100000000	816.03624400000001	55.35019700000000	0.06166800000000	0.00000000000000	0.10544900000000	-4.41749100000000	15.72737800000000	3.47994900000000	0.00000000000000	0.00000000000000	0.00000000000000	0.00000000000000	13.71991400000000	0.00000000000000	0.00000000000000	0.83704900000000	0.00000000000000	
2.03832900000000	-38.35644400000000	814.45036600000003	55.23289100000000	0.06070300000000	0.00000000000000	0.10533900000000	-5.59280300000000	20.98483600000000	4.50703200000000	0.00000000000000	0.00000000000000	0.00000000000000	0.00000000000000	13.72800300000000	0.00000000000000	0.00000000000000	1.09298700000000	0.00000000000000	
2.03999200000000	-39.19877900000000	812.71470499999998	55.08786100000000	0.05973500000000	0.00000000000000	0.10522600000000	-6.78962300000000	26.71330800000000	5.58695800000000	0.29408200000000	0.00000000000000	-0.05584600000000	0.00000000000000	13.73825300000000	0.00000000000000	0.00000000000000	2.62871100000000	0.00000000000000	
2.04166000000000	-40.05539100000000	810.82575199999997	54.91444700000000	0.05876400000000	0.00000000000000	0.10511000000000	-7.96442200000000	32.79564000000000	6.68830800000000	0.29557100000000	0.00000000000000	-0.05665600000000	0.00000000000000	13.75064700000000	0.00000000000000	0.00000000000000	3.17104900000000	0.00000000000000	
2.04332100000000	-40.92540500000000	808.78003100000001	54.71204000000000	0.05779100000000	0.00000000000000	0.10499100000000	-9.07452100000000	39.10795800000000	7.77927900000000	0.29695600000000	0.00000000000000	-0.05739000000000	0.00000000000000	13.76515600000000	0.00000000000000	0.00000000000000	3.71650500000000	0.00000000000000	
2.04500000000000	-41.80785300000000	806.57411500000001	54.48009400000000	0.05681600000000	0.00000000000000	0.10487000000000	-10.08120600000000	45.52986700000000	8.83006100000000	0.29825300000000	0.00000000000000	-0.05805900000000	0.00000000000000	13.78173500000000	0.00000000000000	0.00000000000000	4.25142300000000	0.00000000000000	
2.04665500000000	-42.70167300000000	804.20462499999996	54.21812300000000	0.05584100000000	0.00000000000000	0.10474500000000	-10.95227200000000	51.95351500000000	9.81486000000000	0.29947600000000	0.00000000000000	-0.05867400000000	0.00000000000000	13.80032600000000	0.00000000000000	0.00000000000000	4.76378500000000	0.00000000000000	
2.04833900000000	-43.60571400000000	801.66824499999996	53.92570600000000	0.05486400000000	0.00000000000000	0.10461800000000	-11.66376300000000	58.29054200000000	10.71335500000000	0.30063600000000	0.00000000000000	-0.05924100000000	0.00000000000000	13.82085700000000	0.00000000000000	0.00000000000000	5.24391000000000	0.00000000000000	
2.04999100000000	-44.51873200000000	798.96172500000000	53.60248900000000	0.05388800000000	0.00000000000000	0.10448800000000	-12.20078800000000	64.47644699999999	11.51150700000000	0.30174200000000	0.00000000000000	-0.05976900000000	0.00000000000000	13.84323900000000	0.00000000000000	0.00000000000000	5.68486900000000	0.00000000000000	
2.05165500000000	-45.43939400000000	796.08189300000004	53.24818500000000	0.05291100000000	0.00000000000000	0.10435500000000	-12.55748700000000	70.47231800000000	12.20173300000000	0.30280100000000	0.00000000000000	-0.06026100000000	0.00000000000000	13.86736800000000	0.00000000000000	0.00000000000000	6.08260700000000	0.00000000000000	
2.05332200000000	-46.36627700000000	793.02566500000000	52.86258100000000	0.05193600000000	0.00000000000000	0.10421900000000	-12.73625500000000	76.26417700000000	12.78251300000000	0.30381800000000	0.00000000000000	-0.06072300000000	0.00000000000000	13.89312500000000	0.00000000000000	0.00000000000000	6.43580900000000	0.00000000000000	
2.05498900000000	-47.29787500000000	789.79005199999995	52.44553300000000	0.05096200000000	0.00000000000000	0.10408100000000	-12.74642500000000	81.86038300000000	13.25757700000000	0.30479900000000	0.00000000000000	-0.06115900000000	0.00000000000000	13.92037400000000	0.00000000000000	0.00000000000000	6.74556800000000	0.00000000000000	
2.05666200000000	-48.23259400000000	786.37216799999999	51.99697200000000	0.04999000000000	0.00000000000000	0.10394000000000	-12.60260700000000	87.28764800000000	13.63479300000000	0.30574800000000	0.00000000000000	-0.06157100000000	0.00000000000000	13.94896100000000	0.00000000000000	0.00000000000000	7.01490700000000	0.00000000000000	
2.05832700000000	-49.16876100000000	782.76924699999995	51.51690700000000	0.04902100000000	0.00000000000000	0.10379600000000	-12.32287300000000	92.58624100000000	13.92491500000000	0.30666600000000	0.00000000000000	-0.06196200000000	0.00000000000000	13.97871800000000	0.00000000000000	0.00000000000000	7.24823000000000	0.00000000000000	
2.05999000000000	-50.10462400000000	778.97864700000002	51.00542100000000	0.04805400000000	0.00000000000000	0.10364900000000	-11.92698000000000	97.80490899999999	14.14030200000000	0.30755700000000	0.00000000000000	-0.06233500000000	0.00000000000000	14.00945900000000	0.00000000000000	0.00000000000000	7.45075100000000	0.00000000000000	
2.06165600000000	-51.03835400000000	774.99786200000005	50.46267300000000	0.04709100000000	0.00000000000000	0.10350000000000	-11.43475400000000	102.99598600000000	14.29373900000000	0.30842300000000	0.00000000000000	-0.06269200000000	0.00000000000000	14.04098200000000	0.00000000000000	0.00000000000000	7.62795800000000	0.00000000000000	
2.06332600000000	-51.96805200000000	770.82453499999997	49.88890200000000	0.04613200000000	0.00000000000000	0.10334700000000	-10.86474900000000	108.21104600000000	14.39742000000000	0.30926400000000	0.00000000000000	-0.06303500000000	0.00000000000000	14.07306900000000	0.00000000000000	0.00000000000000	7.78514100000000	0.00000000000000	
2.06501500000000	-52.89175100000000	766.45647099999996	49.28442500000000	0.04517700000000	0.00000000000000	0.10319300000000	-10.23322400000000	113.49734200000000	14.46214600000000	0.31008300000000	0.00000000000000	-0.06336500000000	0.00000000000000	14.10548500000000	0.00000000000000	0.00000000000000	7.92702300000000	0.00000000000000	
2.06665500000000	-53.80742000000000	761.89164300000004	48.64963500000000	0.04422700000000	0.00000000000000	0.10303600000000	-9.55348000000000	118.89517700000000	14.49677900000000	0.31087800000000	0.00000000000000	-0.06368300000000	0.00000000000000	14.13797800000000	0.00000000000000	0.00000000000000	8.05748800000000	0.00000000000000	
2.06832900000000	-54.71297100000000	757.12820899999997	47.98500500000000	0.04328300000000	0.00000000000000	0.10287600000000	-8.83552900000000	124.43623400000000	14.50792500000000	0.31165100000000	0.00000000000000	-0.06399100000000	0.00000000000000	14.17028300000000	0.00000000000000	0.00000000000000	8.17942600000000	0.00000000000000	
2.06999600000000	-55.60626000000000	752.16452700000002	47.29108400000000	0.04234400000000	0.00000000000000	0.10271400000000	-8.08606800000000	130.14283100000000	14.49984900000000	0.31240200000000	0.00000000000000	-0.06429000000000	0.00000000000000	14.20211700000000	0.00000000000000	0.00000000000000	8.29467500000000	0.00000000000000	
2.07166200000000	-56.48509600000000	746.99916199999996	46.56849800000000	0.04141100000000	0.00000000000000	0.10255000000000	-7.30870400000000	136.02797699999999	14.47458000000000	0.31313100000000	0.00000000000000	-0.06458100000000	0.00000000000000	14.23318400000000	0.00000000000000	0.00000000000000	8.40405400000000	0.00000000000000	
2.07332800000000	-57.34724200000000	741.63090399999999	45.81795000000000	0.04048500000000	0.00000000000000	0.10238300000000	-6.50436900000000	142.09608499999999	14.43215700000000	0.31383600000000	0.00000000000000	-0.06486400000000	0.00000000000000	14.26317300000000	0.00000000000000	0.00000000000000	8.50746300000000	0.00000000000000	
